# Blender v3.2.0 OBJ File: ''
# www.blender.org
mtllib thunder_mesh.mtl
o Plane
v -0.239021 0.226410 0.002919
v 0.226851 0.245754 0.001094
v -0.953218 17.066257 1.087871
v 0.879990 17.322187 -1.087871
v -0.374631 16.203175 0.394325
v 0.349806 14.983282 -0.429581
v 0.607207 13.577703 -0.662263
v -0.111473 12.184143 0.069206
v -1.026824 11.033221 0.843892
v -1.792809 10.328262 1.406085
v -1.966216 9.816366 1.465840
v -1.569126 9.114705 1.069226
v -0.812245 8.388923 0.480757
v 0.438424 7.732595 -0.247753
v 1.486465 7.199316 -0.738322
v 0.830585 6.461133 -0.350427
v -0.362546 5.670402 0.123715
v 0.031281 4.879672 -0.020887
v -1.968739 4.088943 0.537947
v -3.124899 3.298212 0.658673
v -2.066259 2.432821 0.310379
v -0.563692 1.608394 0.050655
v -0.428672 0.761151 0.017022
v 0.393554 0.777343 -0.008915
v 0.433730 1.608230 -0.031609
v -0.228593 2.323559 0.028989
v -1.091001 3.214389 0.223693
v 0.138047 4.088943 -0.042978
v 1.954039 4.879674 -0.571328
v 1.523763 5.670403 -0.543250
v 2.704032 6.461133 -1.177476
v 3.265101 7.199912 -1.672346
v 2.295194 7.711064 -1.295742
v 0.993901 8.037585 -0.566555
v 0.033936 8.542578 -0.042744
v -0.474825 9.178491 0.297414
v 0.086717 9.866537 -0.088633
v 1.390742 10.907814 -1.178102
v 2.932975 12.176202 -2.671689
v 3.380810 13.577705 -3.276266
v 2.811744 14.981211 -2.992026
v 1.803902 16.194492 -2.111467
v -1.000000 -0.000001 1.000000
v 1.000000 -0.000001 1.000000
v -1.000000 -0.000001 -1.000000
v 1.000000 -0.000001 -1.000000
v 0.000000 0.351197 -1.336598
v 0.260757 0.351197 -1.310915
v 0.511494 0.351197 -1.234855
v 0.742574 0.351197 -1.111340
v 0.945117 0.351197 -0.945117
v 1.111340 0.351197 -0.742574
v 1.234855 0.351197 -0.511494
v 1.310915 0.351198 -0.260757
v 1.336598 0.351198 0.000000
v 1.310915 0.351198 0.260757
v 1.234855 0.351198 0.511494
v 1.111340 0.351198 0.742574
v 0.945117 0.351198 0.945117
v 0.742574 0.351198 1.111340
v 0.511494 0.351198 1.234855
v 0.260757 0.351198 1.310915
v -0.000000 0.351198 1.336598
v -0.260757 0.351198 1.310915
v -0.511494 0.351198 1.234855
v -0.742574 0.351198 1.111340
v -0.945117 0.351198 0.945117
v -1.111340 0.351198 0.742574
v -1.234855 0.351198 0.511494
v -1.310915 0.351198 0.260757
v -1.336598 0.351198 -0.000000
v -1.310915 0.351198 -0.260757
v -1.234855 0.351197 -0.511494
v -1.111340 0.351197 -0.742574
v -0.945117 0.351197 -0.945117
v -0.742574 0.351197 -1.111340
v -0.511494 0.351197 -1.234855
v -0.260757 0.351197 -1.310915
v 0.111796 -0.000001 -0.562037
v 0.000000 -0.000001 -0.573048
v 0.219296 -0.000001 -0.529428
v 0.318369 -0.000001 -0.476472
v 0.405206 -0.000001 -0.405206
v 0.476472 -0.000001 -0.318369
v 0.529428 -0.000001 -0.219296
v 0.562037 -0.000001 -0.111796
v 0.573048 -0.000001 0.000000
v 0.562037 -0.000001 0.111796
v 0.529428 -0.000001 0.219296
v 0.476472 -0.000001 0.318369
v 0.405206 -0.000001 0.405206
v 0.318369 -0.000001 0.476472
v 0.219296 -0.000001 0.529428
v 0.111796 -0.000001 0.562037
v -0.000000 -0.000001 0.573048
v -0.111796 -0.000001 0.562037
v -0.219296 -0.000001 0.529428
v -0.318369 -0.000001 0.476472
v -0.405206 -0.000001 0.405206
v -0.476472 -0.000001 0.318369
v -0.529428 -0.000001 0.219296
v -0.562037 -0.000001 0.111796
v -0.573048 -0.000001 0.000000
v -0.562037 -0.000001 -0.111796
v -0.529428 -0.000001 -0.219296
v -0.476472 -0.000001 -0.318368
v -0.405206 -0.000001 -0.405206
v -0.318369 -0.000001 -0.476472
v -0.219296 -0.000001 -0.529428
v -0.111796 -0.000001 -0.562037
vt 0.000000 0.950000
vt 1.000000 0.950000
vt 1.000000 1.000000
vt 0.000000 1.000000
vt 0.000000 0.000000
vt 1.000000 0.000000
vt 1.000000 0.050000
vt 0.000000 0.050000
vt 1.000000 0.100000
vt 0.000000 0.100000
vt 1.000000 0.150000
vt 0.000000 0.150000
vt 1.000000 0.200000
vt 0.000000 0.200000
vt 1.000000 0.250000
vt 0.000000 0.250000
vt 1.000000 0.300000
vt 0.000000 0.300000
vt 1.000000 0.350000
vt 0.000000 0.350000
vt 1.000000 0.400000
vt 0.000000 0.400000
vt 1.000000 0.450000
vt 0.000000 0.450000
vt 1.000000 0.500000
vt 0.000000 0.500000
vt 1.000000 0.550000
vt 0.000000 0.550000
vt 1.000000 0.600000
vt 0.000000 0.600000
vt 1.000000 0.650000
vt 0.000000 0.650000
vt 1.000000 0.700000
vt 0.000000 0.700000
vt 1.000000 0.750000
vt 0.000000 0.750000
vt 1.000000 0.800000
vt 0.000000 0.800000
vt 1.000000 0.850000
vt 0.000000 0.850000
vt 1.000000 0.900000
vt 0.000000 0.900000
vt 0.000000 0.000000
vt 1.000000 0.000000
vt 1.000000 1.000000
vt 0.000000 1.000000
vt 1.000000 1.000000
vt 1.000000 0.428737
vt 0.986602 0.428737
vt 0.968750 1.000000
vt 0.955352 0.428737
vt 0.937500 1.000000
vt 0.968750 0.428737
vt 0.924102 0.428737
vt 0.906250 1.000000
vt 0.937500 0.428737
vt 0.906250 0.428737
vt 0.892852 0.428737
vt 0.875000 1.000000
vt 0.843750 1.000000
vt 0.875000 0.428737
vt 0.861602 0.428737
vt 0.812500 1.000000
vt 0.843750 0.428737
vt 0.830352 0.428737
vt 0.781250 1.000000
vt 0.812500 0.428737
vt 0.799102 0.428737
vt 0.781250 0.428737
vt 0.767852 0.428737
vt 0.750000 1.000000
vt 0.750000 0.428737
vt 0.736602 0.428737
vt 0.718750 1.000000
vt 0.705352 0.428737
vt 0.687500 1.000000
vt 0.718750 0.428737
vt 0.674102 0.428737
vt 0.656250 1.000000
vt 0.687500 0.428737
vt 0.642852 0.428737
vt 0.625000 1.000000
vt 0.656250 0.428737
vt 0.593750 1.000000
vt 0.625000 0.428737
vt 0.611602 0.428737
vt 0.562500 1.000000
vt 0.593750 0.428737
vt 0.580352 0.428737
vt 0.531250 1.000000
vt 0.562500 0.428737
vt 0.549102 0.428737
vt 0.531250 0.428737
vt 0.517852 0.428737
vt 0.500000 1.000000
vt 0.500000 0.428737
vt 0.486602 0.428737
vt 0.468750 1.000000
vt 0.455352 0.428737
vt 0.437500 1.000000
vt 0.468750 0.428737
vt 0.424102 0.428737
vt 0.406250 1.000000
vt 0.437500 0.428737
vt 0.392852 0.428737
vt 0.375000 1.000000
vt 0.406250 0.428737
vt 0.343750 1.000000
vt 0.375000 0.428737
vt 0.361602 0.428737
vt 0.312500 1.000000
vt 0.343750 0.428737
vt 0.330352 0.428737
vt 0.281250 1.000000
vt 0.312500 0.428737
vt 0.299102 0.428737
vt 0.281250 0.428737
vt 0.267852 0.428737
vt 0.250000 1.000000
vt 0.236602 0.428737
vt 0.218750 1.000000
vt 0.250000 0.428737
vt 0.205352 0.428737
vt 0.187500 1.000000
vt 0.218750 0.428737
vt 0.174102 0.428737
vt 0.156250 1.000000
vt 0.187500 0.428737
vt 0.142852 0.428737
vt 0.125000 1.000000
vt 0.156250 0.428737
vt 0.093750 1.000000
vt 0.125000 0.428737
vt 0.111602 0.428737
vt 0.062500 1.000000
vt 0.093750 0.428737
vt 0.080352 0.428737
vt 0.031250 1.000000
vt 0.062500 0.428737
vt 0.049102 0.428737
vt 0.031250 0.428737
vt 0.017852 0.428737
vt 0.000000 1.000000
vn 0.7534 0.0219 0.6572
vn 0.7417 0.0430 0.6693
vn 0.7590 0.0113 0.6510
vn 0.0216 -0.0034 0.9998
vn 0.0431 -0.0032 0.9991
vn 0.0435 -0.0032 0.9990
vn 0.0828 -0.0122 0.9965
vn 0.1029 -0.0200 0.9945
vn 0.1378 -0.0483 0.9893
vn 0.1683 -0.0985 0.9808
vn 0.2058 -0.1110 0.9723
vn 0.2056 -0.1110 0.9723
vn 0.2641 -0.0124 0.9644
vn 0.2394 -0.0963 0.9661
vn 0.2951 0.0425 0.9545
vn 0.2847 0.0287 0.9582
vn 0.3397 0.0781 0.9373
vn 0.3257 0.0688 0.9430
vn 0.4165 0.1625 0.8945
vn 0.3818 0.1155 0.9170
vn 0.4434 0.1838 0.8773
vn 0.4505 0.1865 0.8731
vn 0.4729 0.1808 0.8624
vn 0.4942 0.0286 0.8689
vn 0.4994 0.0001 0.8664
vn 0.5267 -0.0249 0.8497
vn 0.5369 -0.0320 0.8431
vn 0.5717 -0.0536 0.8187
vn 0.5888 -0.0647 0.8057
vn 0.5964 -0.0698 0.7997
vn 0.6239 -0.0331 0.7808
vn 0.6129 -0.0554 0.7882
vn 0.6527 0.0279 0.7571
vn 0.6384 -0.0028 0.7697
vn 0.6719 0.0625 0.7380
vn 0.6626 0.0468 0.7475
vn 0.6889 0.0725 0.7212
vn 0.6872 0.0720 0.7229
vn 0.7110 0.0693 0.6998
vn 0.7239 0.0608 0.6873
vn 0.0000 1.0000 0.0000
vn 0.0000 0.9085 0.4179
vn -0.0815 0.9085 0.4098
vn -0.1599 0.9085 0.3861
vn -0.2322 0.9085 0.3474
vn -0.2955 0.9085 0.2955
vn -0.3474 0.9085 0.2322
vn -0.3861 0.9085 0.1599
vn -0.4098 0.9085 0.0815
vn -0.4179 0.9085 -0.0000
vn -0.4098 0.9085 -0.0815
vn -0.3861 0.9085 -0.1599
vn -0.3474 0.9085 -0.2322
vn -0.2955 0.9085 -0.2955
vn -0.2322 0.9085 -0.3474
vn -0.1599 0.9085 -0.3861
vn -0.0815 0.9085 -0.4098
vn 0.0000 0.9085 -0.4179
vn 0.0815 0.9085 -0.4098
vn 0.1599 0.9085 -0.3861
vn 0.2322 0.9085 -0.3474
vn 0.2955 0.9085 -0.2955
vn 0.3474 0.9085 -0.2322
vn 0.3861 0.9085 -0.1599
vn 0.4098 0.9085 -0.0815
vn 0.4179 0.9085 0.0000
vn 0.4098 0.9085 0.0815
vn 0.3861 0.9085 0.1599
vn 0.3474 0.9085 0.2322
vn 0.2955 0.9085 0.2955
vn 0.2322 0.9085 0.3474
vn 0.1599 0.9085 0.3861
vn 0.0815 0.9085 0.4098
usemtl Material.001
s 1
f 5/1/1 42/2/2 4/3/3 3/4/3
f 1/5/4 2/6/4 24/7/5 23/8/6
f 23/8/6 24/7/5 25/9/7 22/10/8
f 22/10/8 25/9/7 26/11/9 21/12/10
f 21/12/10 26/11/9 27/13/11 20/14/12
f 20/14/12 27/13/11 28/15/13 19/16/14
f 19/16/14 28/15/13 29/17/15 18/18/16
f 18/18/16 29/17/15 30/19/17 17/20/18
f 17/20/18 30/19/17 31/21/19 16/22/20
f 16/22/20 31/21/19 32/23/21 15/24/22
f 15/24/22 32/23/21 33/25/23 14/26/24
f 14/26/24 33/25/23 34/27/25 13/28/26
f 13/28/26 34/27/25 35/29/27 12/30/28
f 12/30/28 35/29/27 36/31/29 11/32/30
f 11/32/30 36/31/29 37/33/31 10/34/32
f 10/34/32 37/33/31 38/35/33 9/36/34
f 9/36/34 38/35/33 39/37/35 8/38/36
f 8/38/36 39/37/35 40/39/37 7/40/38
f 7/40/38 40/39/37 41/41/39 6/42/40
f 6/42/40 41/41/39 42/2/2 5/1/1
usemtl Material.003
f 43/43/41 44/44/41 46/45/41 45/46/41
usemtl Material.002
f 47/47/42 80/48/42 79/49/43 48/50/43
f 81/51/44 49/52/44 48/50/43 79/53/43
f 82/54/45 50/55/45 49/52/44 81/56/44
f 82/57/45 83/58/46 51/59/46 50/55/45
f 52/60/47 51/59/46 83/61/46 84/62/47
f 53/63/48 52/60/47 84/64/47 85/65/48
f 54/66/49 53/63/48 85/67/48 86/68/49
f 86/69/49 87/70/50 55/71/50 54/66/49
f 87/72/50 88/73/51 56/74/51 55/71/50
f 89/75/52 57/76/52 56/74/51 88/77/51
f 90/78/53 58/79/53 57/76/52 89/80/52
f 91/81/54 59/82/54 58/79/53 90/83/53
f 60/84/55 59/82/54 91/85/54 92/86/55
f 61/87/56 60/84/55 92/88/55 93/89/56
f 62/90/57 61/87/56 93/91/56 94/92/57
f 94/93/57 95/94/58 63/95/58 62/90/57
f 95/96/58 96/97/59 64/98/59 63/95/58
f 97/99/60 65/100/60 64/98/59 96/101/59
f 98/102/61 66/103/61 65/100/60 97/104/60
f 99/105/62 67/106/62 66/103/61 98/107/61
f 68/108/63 67/106/62 99/109/62 100/110/63
f 69/111/64 68/108/63 100/112/63 101/113/64
f 70/114/65 69/111/64 101/115/64 102/116/65
f 70/114/65 102/117/65 103/118/66 71/119/66
f 104/120/67 72/121/67 71/119/66 103/122/66
f 105/123/68 73/124/68 72/121/67 104/125/67
f 106/126/69 74/127/69 73/124/68 105/128/68
f 107/129/70 75/130/70 74/127/69 106/131/69
f 76/132/71 75/130/70 107/133/70 108/134/71
f 77/135/72 76/132/71 108/136/71 109/137/72
f 78/138/73 77/135/72 109/139/72 110/140/73
f 78/138/73 110/141/73 80/142/42 47/143/42
