{
  "asset": {
    "generator": "Khronos glTF Blender I/O v1.5.17",
    "version": "2.0"
  },
  "scene": 0,
  "scenes": [
    {
      "name": "Scene",
      "nodes": [
        0
      ]
    }
  ],
  "nodes": [
    {
      "mesh": 0,
      "name": "sphere_gltf"
    }
  ],
  "materials": [
    {
      "doubleSided": true,
      "name": "aerial_grass_rock",
      "normalTexture": {
        "index": 0
      },
      "pbrMetallicRoughness": {
        "baseColorTexture": {
          "index": 1
        },
        "metallicFactor": 0,
        "metallicRoughnessTexture": {
          "index": 2
        }
      }
    }
  ],
  "meshes": [
    {
      "name": "Sphere.001",
      "primitives": [
        {
          "attributes": {
            "POSITION": 0,
            "NORMAL": 1,
            "TEXCOORD_0": 2
          },
          "indices": 3,
          "material": 0
        }
      ]
    }
  ],
  "textures": [
    {
      "sampler": 0,
      "source": 0
    },
    {
      "sampler": 0,
      "source": 1
    },
    {
      "sampler": 0,
      "source": 2
    }
  ],
  "images": [
    {
      "mimeType": "image/jpeg",
      "name": "aerial_grass_rock_nor_gl_4k",
      "uri": "textures/aerial_grass_rock_nor_gl_1k.jpg"
    },
    {
      "mimeType": "image/jpeg",
      "name": "aerial_grass_rock_diff_4k",
      "uri": "textures/aerial_grass_rock_diff_1k.jpg"
    },
    {
      "mimeType": "image/jpeg",
      "name": "aerial_grass_rock_rough_4k",
      "uri": "textures/aerial_grass_rock_rough_1k.jpg"
    }
  ],
  "accessors": [
    {
      "bufferView": 0,
      "componentType": 5126,
      "count": 53915,
      "max": [
        7.521618366241455,
        7.534682750701904,
        7.501662254333496
      ],
      "min": [
        -7.521615505218506,
        -7.5476579666137695,
        -7.501672267913818
      ],
      "type": "VEC3"
    },
    {
      "bufferView": 1,
      "componentType": 5126,
      "count": 53915,
      "type": "VEC3"
    },
    {
      "bufferView": 2,
      "componentType": 5126,
      "count": 53915,
      "type": "VEC2"
    },
    {
      "bufferView": 3,
      "componentType": 5123,
      "count": 322170,
      "type": "SCALAR"
    }
  ],
  "bufferViews": [
    {
      "buffer": 0,
      "byteLength": 646980,
      "byteOffset": 0
    },
    {
      "buffer": 0,
      "byteLength": 646980,
      "byteOffset": 646980
    },
    {
      "buffer": 0,
      "byteLength": 431320,
      "byteOffset": 1293960
    },
    {
      "buffer": 0,
      "byteLength": 644340,
      "byteOffset": 1725280
    }
  ],
  "samplers": [
    {
      "magFilter": 9729,
      "minFilter": 9987
    }
  ],
  "buffers": [
    {
      "byteLength": 2369620,
      "uri": "aerial_grass_rock.bin"
    }
  ]
}