{
  "asset": {
    "generator": "Khronos glTF Blender I/O v1.5.17",
    "version": "2.0"
  },
  "scene": 0,
  "scenes": [
    {
      "name": "Scene",
      "nodes": [
        0
      ]
    }
  ],
  "nodes": [
    {
      "mesh": 0,
      "name": "sphere_gltf"
    }
  ],
  "materials": [
    {
      "doubleSided": true,
      "name": "aerial_beach_01",
      "normalTexture": {
        "index": 0
      },
      "pbrMetallicRoughness": {
        "baseColorTexture": {
          "index": 1
        },
        "metallicFactor": 0,
        "metallicRoughnessTexture": {
          "index": 2
        }
      }
    }
  ],
  "meshes": [
    {
      "name": "Sphere.001",
      "primitives": [
        {
          "attributes": {
            "POSITION": 0,
            "NORMAL": 1,
            "TEXCOORD_0": 2
          },
          "indices": 3,
          "material": 0
        }
      ]
    }
  ],
  "textures": [
    {
      "sampler": 0,
      "source": 0
    },
    {
      "sampler": 0,
      "source": 1
    },
    {
      "sampler": 0,
      "source": 2
    }
  ],
  "images": [
    {
      "mimeType": "image/jpeg",
      "name": "aerial_beach_01_nor_gl_4k",
      "uri": "textures/aerial_beach_01_nor_gl_1k.jpg"
    },
    {
      "mimeType": "image/jpeg",
      "name": "aerial_beach_01_diff_4k",
      "uri": "textures/aerial_beach_01_diff_1k.jpg"
    },
    {
      "mimeType": "image/jpeg",
      "name": "aerial_beach_01_rough_4k",
      "uri": "textures/aerial_beach_01_rough_1k.jpg"
    }
  ],
  "accessors": [
    {
      "bufferView": 0,
      "componentType": 5126,
      "count": 53924,
      "max": [
        14.9902982711792,
        15.008347511291504,
        14.99077320098877
      ],
      "min": [
        -14.990299224853516,
        -15.008810997009277,
        -14.990755081176758
      ],
      "type": "VEC3"
    },
    {
      "bufferView": 1,
      "componentType": 5126,
      "count": 53924,
      "type": "VEC3"
    },
    {
      "bufferView": 2,
      "componentType": 5126,
      "count": 53924,
      "type": "VEC2"
    },
    {
      "bufferView": 3,
      "componentType": 5123,
      "count": 322170,
      "type": "SCALAR"
    }
  ],
  "bufferViews": [
    {
      "buffer": 0,
      "byteLength": 647088,
      "byteOffset": 0
    },
    {
      "buffer": 0,
      "byteLength": 647088,
      "byteOffset": 647088
    },
    {
      "buffer": 0,
      "byteLength": 431392,
      "byteOffset": 1294176
    },
    {
      "buffer": 0,
      "byteLength": 644340,
      "byteOffset": 1725568
    }
  ],
  "samplers": [
    {
      "magFilter": 9729,
      "minFilter": 9987
    }
  ],
  "buffers": [
    {
      "byteLength": 2369908,
      "uri": "aerial_beach_01.bin"
    }
  ]
}