{
  "asset": {
    "generator": "Khronos glTF Blender I/O v1.6.8",
    "version": "2.0"
  },
  "scene": 0,
  "scenes": [
    {
      "name": "Scene",
      "nodes": [
        0
      ]
    }
  ],
  "nodes": [
    {
      "mesh": 0,
      "name": "sphere_gltf.001"
    }
  ],
  "materials": [
    {
      "doubleSided": true,
      "name": "burned_ground_01",
      "normalTexture": {
        "index": 0
      },
      "pbrMetallicRoughness": {
        "baseColorTexture": {
          "index": 1
        },
        "metallicFactor": 0,
        "metallicRoughnessTexture": {
          "index": 2
        }
      }
    }
  ],
  "meshes": [
    {
      "name": "Sphere.002",
      "primitives": [
        {
          "attributes": {
            "POSITION": 0,
            "NORMAL": 1,
            "TEXCOORD_0": 2
          },
          "indices": 3,
          "material": 0
        }
      ]
    }
  ],
  "textures": [
    {
      "sampler": 0,
      "source": 0
    },
    {
      "sampler": 0,
      "source": 1
    },
    {
      "sampler": 0,
      "source": 2
    }
  ],
  "images": [
    {
      "mimeType": "image/jpeg",
      "name": "burned_ground_01_nor_gl_4k",
      "uri": "textures/burned_ground_01_nor_gl_1k.jpg"
    },
    {
      "mimeType": "image/jpeg",
      "name": "burned_ground_01_diff_4k",
      "uri": "textures/burned_ground_01_diff_1k.jpg"
    },
    {
      "mimeType": "image/jpeg",
      "name": "burned_ground_01_rough_4k",
      "uri": "textures/burned_ground_01_rough_1k.jpg"
    }
  ],
  "accessors": [
    {
      "bufferView": 0,
      "componentType": 5126,
      "count": 53929,
      "max": [
        0.5253772735595703,
        0.5239375829696655,
        0.5143241882324219
      ],
      "min": [
        -0.5253768563270569,
        -0.5284086465835571,
        -0.5143249034881592
      ],
      "type": "VEC3"
    },
    {
      "bufferView": 1,
      "componentType": 5126,
      "count": 53929,
      "type": "VEC3"
    },
    {
      "bufferView": 2,
      "componentType": 5126,
      "count": 53929,
      "type": "VEC2"
    },
    {
      "bufferView": 3,
      "componentType": 5123,
      "count": 322170,
      "type": "SCALAR"
    }
  ],
  "bufferViews": [
    {
      "buffer": 0,
      "byteLength": 647148,
      "byteOffset": 0
    },
    {
      "buffer": 0,
      "byteLength": 647148,
      "byteOffset": 647148
    },
    {
      "buffer": 0,
      "byteLength": 431432,
      "byteOffset": 1294296
    },
    {
      "buffer": 0,
      "byteLength": 644340,
      "byteOffset": 1725728
    }
  ],
  "samplers": [
    {
      "magFilter": 9729,
      "minFilter": 9987
    }
  ],
  "buffers": [
    {
      "byteLength": 2370068,
      "uri": "burned_ground_01.bin"
    }
  ]
}