{
  "asset": {
    "generator": "Khronos glTF Blender I/O v1.6.8",
    "version": "2.0"
  },
  "scene": 0,
  "scenes": [
    {
      "name": "Scene",
      "nodes": [
        0
      ]
    }
  ],
  "nodes": [
    {
      "mesh": 0,
      "name": "sphere_gltf"
    }
  ],
  "materials": [
    {
      "doubleSided": true,
      "name": "forest_leaves_02",
      "normalTexture": {
        "index": 0
      },
      "pbrMetallicRoughness": {
        "baseColorTexture": {
          "index": 1
        },
        "metallicFactor": 0,
        "metallicRoughnessTexture": {
          "index": 2
        }
      }
    }
  ],
  "meshes": [
    {
      "name": "Sphere.002",
      "primitives": [
        {
          "attributes": {
            "POSITION": 0,
            "NORMAL": 1,
            "TEXCOORD_0": 2
          },
          "indices": 3,
          "material": 0
        }
      ]
    }
  ],
  "textures": [
    {
      "sampler": 0,
      "source": 0
    },
    {
      "sampler": 0,
      "source": 1
    },
    {
      "sampler": 0,
      "source": 2
    }
  ],
  "images": [
    {
      "mimeType": "image/jpeg",
      "name": "forest_leaves_02_nor_gl",
      "uri": "textures/forest_leaves_02_nor_gl_1k.jpg"
    },
    {
      "mimeType": "image/jpeg",
      "name": "forest_leaves_02_diffuse",
      "uri": "textures/forest_leaves_02_diffuse_1k.jpg"
    },
    {
      "mimeType": "image/jpeg",
      "name": "forest_leaves_02_rough",
      "uri": "textures/forest_leaves_02_rough_1k.jpg"
    }
  ],
  "accessors": [
    {
      "bufferView": 0,
      "componentType": 5126,
      "count": 53908,
      "max": [
        1.5163261890411377,
        1.5152734518051147,
        1.5099760293960571
      ],
      "min": [
        -1.5163259506225586,
        -1.5113142728805542,
        -1.5100973844528198
      ],
      "type": "VEC3"
    },
    {
      "bufferView": 1,
      "componentType": 5126,
      "count": 53908,
      "type": "VEC3"
    },
    {
      "bufferView": 2,
      "componentType": 5126,
      "count": 53908,
      "type": "VEC2"
    },
    {
      "bufferView": 3,
      "componentType": 5123,
      "count": 322170,
      "type": "SCALAR"
    }
  ],
  "bufferViews": [
    {
      "buffer": 0,
      "byteLength": 646896,
      "byteOffset": 0
    },
    {
      "buffer": 0,
      "byteLength": 646896,
      "byteOffset": 646896
    },
    {
      "buffer": 0,
      "byteLength": 431264,
      "byteOffset": 1293792
    },
    {
      "buffer": 0,
      "byteLength": 644340,
      "byteOffset": 1725056
    }
  ],
  "samplers": [
    {
      "magFilter": 9729,
      "minFilter": 9987
    }
  ],
  "buffers": [
    {
      "byteLength": 2369396,
      "uri": "forest_leaves_02.bin"
    }
  ]
}